<?xml version="1.0" encoding="UTF-8"?>
<svg width="48px" height="16px" viewBox="0 0 48 16" version="1.1" xmlns="http://www.w3.org/2000/svg" xmlns:xlink="http://www.w3.org/1999/xlink">
    <!-- Generator: Sketch Beta 42 (36644) - http://www.bohemiancoding.com/sketch -->
    <title>Group 46</title>
    <desc>Created with Sketch Beta.</desc>
    <defs></defs>
    <g id="Page-1" stroke="none" stroke-width="1" fill="none" fill-rule="evenodd">
        <g id="Home-Page-RO@2x-Copy" transform="translate(-215.000000, -677.000000)" fill="#FFFFFF">
            <g id="Group-49" transform="translate(166.000000, 673.000000)">
                <g id="Group-47">
                    <g id="Group-46" transform="translate(49.000000, 4.000000)">
                        <path d="M0.924261486,0.449496843 L0.961462949,1.65720204 L3.55329266,1.74694578 C3.55329266,1.74694578 4.9987804,1.32123832 5.74626133,3.88852274 C6.49374225,6.45580715 8.64874242,15.1087906 8.64874242,15.1087906 L12.1415197,15.1087906 L18.5309082,0.630518391 L14.6044542,0.630518391 L10.897705,10.3412506 L9.33064139,2.17226971 C9.33064139,2.17226971 8.99851287,0.576442039 7.3723871,0.576442039 C5.74626133,0.576442039 0.924261486,0.449496843 0.924261486,0.449496843 Z" id="Path-6"></path>
                        <polygon id="Path-7" points="20.3361379 0.749026142 17.1943402 15.1360205 20.7684346 15.1360205 23.7407723 0.749026142"></polygon>
                        <path d="M34.9018527,1.1122198 L34.3729783,4.04384843 C34.3729783,4.04384843 30.0611863,2.45853992 29.1737205,4.04384843 C28.2862547,5.62915694 30.9769066,6.40249784 32.9393797,8.0512513 C34.9018527,9.70000477 34.0604093,13.173164 31.3297453,14.8641047 C28.5990812,16.5550453 23.8403622,14.9780102 23.8403622,14.9780102 L24.3807422,11.4572945 C24.3807422,11.4572945 28.6727976,13.2027587 29.7965119,11.7369443 C30.9202261,10.27113 28.5231442,9.85456342 27.1298152,8.56094969 C25.7364862,7.26733596 24.9181985,6.30833609 25.16274,4.39093424 C25.4072814,2.47353238 27.1784597,0.599072972 30.3440983,0.273077537 C33.5097368,-0.0529178969 34.9018527,1.1122198 34.9018527,1.1122198 Z" id="Path-8"></path>
                        <path d="M40.5066013,0.661384498 L44.4391372,0.743715738 L47.5052015,15.3268159 L44.1310405,15.3268159 L43.5514921,13.2227794 L38.6603161,13.2227794 L37.9694819,15.3575108 L34.0708515,15.3575108 L40.5066013,0.661384498 Z M41.7924891,4.86271612 L39.526085,10.2013376 L43.1074165,10.2013376 L41.7924891,4.86271612 Z" id="Path-9"></path>
                    </g>
                </g>
            </g>
        </g>
    </g>
</svg>